<svg xmlns="http://www.w3.org/2000/svg" viewBox="0 0 64 64" width="64" height="64">
  <!-- Escudo de fondo -->
  <defs>
    <linearGradient id="shieldGradient" x1="0%" y1="0%" x2="0%" y2="100%">
      <stop offset="0%" style="stop-color:#0969DA;stop-opacity:1" />
      <stop offset="100%" style="stop-color:#1F883D;stop-opacity:1" />
    </linearGradient>
    <linearGradient id="chipGradient" x1="0%" y1="0%" x2="100%" y2="100%">
      <stop offset="0%" style="stop-color:#FFFFFF;stop-opacity:1" />
      <stop offset="100%" style="stop-color:#F6F8FA;stop-opacity:1" />
    </linearGradient>
  </defs>
  
  <!-- Escudo principal -->
  <path d="M32 4L56 16V32C56 44.15 45.15 54 32 54C18.85 54 8 44.15 8 32V16L32 4Z" 
        fill="url(#shieldGradient)" stroke="#FFFFFF" stroke-width="2"/>
  
  <!-- Chip de computadora -->
  <rect x="20" y="20" width="24" height="24" rx="2" fill="url(#chipGradient)" stroke="#0969DA" stroke-width="1"/>
  
  <!-- Líneas del chip -->
  <line x1="24" y1="24" x2="40" y2="24" stroke="#0969DA" stroke-width="1.5"/>
  <line x1="24" y1="28" x2="40" y2="28" stroke="#0969DA" stroke-width="1.5"/>
  <line x1="24" y1="32" x2="40" y2="32" stroke="#0969DA" stroke-width="1.5"/>
  <line x1="24" y1="36" x2="40" y2="36" stroke="#0969DA" stroke-width="1.5"/>
  
  <!-- Puntos de conexión -->
  <circle cx="24" cy="24" r="1" fill="#0969DA"/>
  <circle cx="24" cy="28" r="1" fill="#0969DA"/>
  <circle cx="24" cy="32" r="1" fill="#0969DA"/>
  <circle cx="24" cy="36" r="1" fill="#0969DA"/>
  <circle cx="40" cy="24" r="1" fill="#0969DA"/>
  <circle cx="40" cy="28" r="1" fill="#0969DA"/>
  <circle cx="40" cy="32" r="1" fill="#0969DA"/>
  <circle cx="40" cy="36" r="1" fill="#0969DA"/>
  
  <!-- Centro del chip -->
  <rect x="28" y="28" width="8" height="8" rx="1" fill="#0969DA" opacity="0.3"/>
</svg> 